<svg width="14" height="14" viewBox="0 0 14 14" fill="none" xmlns="http://www.w3.org/2000/svg">
<g clip-path="url(#clip0_116_637)">
<path d="M7.00033 1.16663C10.2221 1.16663 12.8337 3.77821 12.8337 6.99996C12.8337 10.2217 10.2221 12.8333 7.00033 12.8333C3.77858 12.8333 1.16699 10.2217 1.16699 6.99996C1.16699 3.77821 3.77858 1.16663 7.00033 1.16663ZM7.00033 3.49996C6.84562 3.49996 6.69724 3.56142 6.58785 3.67081C6.47845 3.78021 6.41699 3.92858 6.41699 4.08329V6.99996C6.41703 7.15466 6.47851 7.30301 6.58791 7.41238L8.33791 9.16238C8.44793 9.26863 8.59528 9.32743 8.74823 9.3261C8.90117 9.32477 9.04748 9.26343 9.15564 9.15527C9.26379 9.04712 9.32514 8.90081 9.32647 8.74786C9.3278 8.59491 9.269 8.44756 9.16274 8.33754L7.58366 6.75846V4.08329C7.58366 3.92858 7.5222 3.78021 7.4128 3.67081C7.30341 3.56142 7.15504 3.49996 7.00033 3.49996Z" fill="#4E4B59"/>
</g>
<defs>
<clipPath id="clip0_116_637">
<rect width="14" height="14" fill="white"/>
</clipPath>
</defs>
</svg>
