<svg width="14" height="14" viewBox="0 0 14 14" fill="none" xmlns="http://www.w3.org/2000/svg">
<path d="M11.0833 11.0834H2.91667V4.66671H11.0833M9.33333 0.583374V1.75004H4.66667V0.583374H3.5V1.75004H2.91667C2.26917 1.75004 1.75 2.26921 1.75 2.91671V11.0834C1.75 11.3928 1.87292 11.6895 2.09171 11.9083C2.3105 12.1271 2.60725 12.25 2.91667 12.25H11.0833C11.3928 12.25 11.6895 12.1271 11.9083 11.9083C12.1271 11.6895 12.25 11.3928 12.25 11.0834V2.91671C12.25 2.60729 12.1271 2.31054 11.9083 2.09175C11.6895 1.87296 11.3928 1.75004 11.0833 1.75004H10.5V0.583374M9.91667 7.00004H7V9.91671H9.91667V7.00004Z" fill="#49B3BA"/>
</svg>
