<svg width="22" height="22" viewBox="0 0 22 22" fill="none" xmlns="http://www.w3.org/2000/svg">
<g clip-path="url(#clip0_196_1440)">
<path d="M13.75 1.83337C14.2362 1.83337 14.7025 2.02653 15.0464 2.37034C15.3902 2.71416 15.5833 3.18048 15.5833 3.66671V8.25004H17.4167C17.9029 8.25004 18.3692 8.44319 18.713 8.78701C19.0568 9.13083 19.25 9.59714 19.25 10.0834V19.1584C19.25 19.2908 19.2239 19.4219 19.1732 19.5442C19.1226 19.6666 19.0483 19.7777 18.9547 19.8714C18.861 19.965 18.7499 20.0393 18.6275 20.09C18.5052 20.1406 18.3741 20.1667 18.2417 20.1667H3.75833C3.62592 20.1667 3.4948 20.1406 3.37246 20.09C3.25012 20.0393 3.13897 19.965 3.04533 19.8714C2.9517 19.7777 2.87743 19.6666 2.82675 19.5442C2.77608 19.4219 2.75 19.2908 2.75 19.1584V3.66671C2.75 3.18048 2.94315 2.71416 3.28697 2.37034C3.63079 2.02653 4.0971 1.83337 4.58333 1.83337H13.75ZM13.75 3.66671H4.58333V18.3334H6.41667V15.5834C6.41667 14.854 6.7064 14.1546 7.22212 13.6388C7.73785 13.1231 8.43732 12.8334 9.16667 12.8334C9.89601 12.8334 10.5955 13.1231 11.1112 13.6388C11.6269 14.1546 11.9167 14.854 11.9167 15.5834V18.3334H13.75V3.66671ZM17.4167 10.0834H15.5833V18.3334H17.4167V10.0834ZM9.16667 14.6667C8.94214 14.6667 8.72544 14.7492 8.55766 14.8984C8.38988 15.0476 8.28269 15.2531 8.25642 15.4761L8.25 15.5834V18.3334H10.0833V15.5834C10.0833 15.3403 9.98676 15.1071 9.81485 14.9352C9.64294 14.7633 9.40978 14.6667 9.16667 14.6667ZM9.16667 5.50004C9.40978 5.50004 9.64294 5.59662 9.81485 5.76853C9.98676 5.94043 10.0833 6.17359 10.0833 6.41671V7.33337H11C11.2431 7.33337 11.4763 7.42995 11.6482 7.60186C11.8201 7.77377 11.9167 8.00693 11.9167 8.25004C11.9167 8.49316 11.8201 8.72631 11.6482 8.89822C11.4763 9.07013 11.2431 9.16671 11 9.16671H10.0833V10.0834C10.0833 10.3265 9.98676 10.5596 9.81485 10.7316C9.64294 10.9035 9.40978 11 9.16667 11C8.92355 11 8.69039 10.9035 8.51849 10.7316C8.34658 10.5596 8.25 10.3265 8.25 10.0834V9.16671H7.33333C7.09022 9.16671 6.85706 9.07013 6.68515 8.89822C6.51324 8.72631 6.41667 8.49316 6.41667 8.25004C6.41667 8.00693 6.51324 7.77377 6.68515 7.60186C6.85706 7.42995 7.09022 7.33337 7.33333 7.33337H8.25V6.41671C8.25 6.17359 8.34658 5.94043 8.51849 5.76853C8.69039 5.59662 8.92355 5.50004 9.16667 5.50004Z" fill="#4E4B59"/>
</g>
<defs>
<clipPath id="clip0_196_1440">
<rect width="22" height="22" fill="white"/>
</clipPath>
</defs>
</svg>
