<svg width="22" height="22" viewBox="0 0 22 22" fill="none" xmlns="http://www.w3.org/2000/svg">
<g clip-path="url(#clip0_195_1409)">
<path fill-rule="evenodd" clip-rule="evenodd" d="M14.6663 8.24992C14.6663 9.22238 14.28 10.155 13.5924 10.8426C12.9048 11.5303 11.9721 11.9166 10.9997 11.9166C10.0272 11.9166 9.09458 11.5303 8.40695 10.8426C7.71932 10.155 7.33301 9.22238 7.33301 8.24992C7.33301 7.27746 7.71932 6.34483 8.40695 5.65719C9.09458 4.96956 10.0272 4.58325 10.9997 4.58325C11.9721 4.58325 12.9048 4.96956 13.5924 5.65719C14.28 6.34483 14.6663 7.27746 14.6663 8.24992ZM12.833 8.24992C12.833 8.73615 12.6399 9.20246 12.296 9.54628C11.9522 9.8901 11.4859 10.0833 10.9997 10.0833C10.5134 10.0833 10.0471 9.8901 9.70331 9.54628C9.3595 9.20246 9.16634 8.73615 9.16634 8.24992C9.16634 7.76369 9.3595 7.29737 9.70331 6.95356C10.0471 6.60974 10.5134 6.41659 10.9997 6.41659C11.4859 6.41659 11.9522 6.60974 12.296 6.95356C12.6399 7.29737 12.833 7.76369 12.833 8.24992Z" fill="#4E4B59"/>
<path fill-rule="evenodd" clip-rule="evenodd" d="M10.9998 0.916626C5.43109 0.916626 0.916504 5.43121 0.916504 11C0.916504 16.5687 5.43109 21.0833 10.9998 21.0833C16.5686 21.0833 21.0832 16.5687 21.0832 11C21.0832 5.43121 16.5686 0.916626 10.9998 0.916626ZM2.74984 11C2.74984 12.9158 3.40342 14.6795 4.49884 16.0801C5.26813 15.0699 6.26058 14.2511 7.39865 13.6879C8.53672 13.1247 9.7896 12.8322 11.0594 12.8333C12.3128 12.8321 13.5499 13.117 14.6765 13.6663C15.8031 14.2157 16.7895 15.0149 17.5604 16.0031C18.3547 14.9614 18.8894 13.7456 19.1205 12.4562C19.3515 11.1668 19.2722 9.84087 18.8891 8.5882C18.506 7.33552 17.8301 6.19209 16.9174 5.25249C16.0046 4.3129 14.8812 3.60416 13.6402 3.18493C12.3991 2.76569 11.0761 2.648 9.78054 2.8416C8.48498 3.0352 7.25415 3.53453 6.18988 4.29826C5.12561 5.06199 4.2585 6.06817 3.6603 7.23356C3.0621 8.39894 2.75 9.69001 2.74984 11ZM10.9998 19.25C9.10596 19.2528 7.26925 18.6013 5.8005 17.4056C6.39169 16.5593 7.17856 15.8683 8.09418 15.3914C9.0098 14.9145 10.0271 14.6659 11.0594 14.6666C12.0789 14.6658 13.0839 14.9082 13.9909 15.3738C14.8978 15.8393 15.6807 16.5145 16.2743 17.3433C14.7942 18.5778 12.9272 19.2527 10.9998 19.25Z" fill="#4E4B59"/>
</g>
<defs>
<clipPath id="clip0_195_1409">
<rect width="22" height="22" fill="white"/>
</clipPath>
</defs>
</svg>
