<svg width="22" height="22" viewBox="0 0 22 22" fill="none" xmlns="http://www.w3.org/2000/svg">
<g clip-path="url(#clip0_196_1488)">
<path d="M14.6667 2.75C14.9098 2.75 15.1429 2.84658 15.3148 3.01849C15.4868 3.19039 15.5833 3.42355 15.5833 3.66667V4.58333H17.4167C17.8792 4.58319 18.3247 4.75787 18.6638 5.07237C19.003 5.38687 19.2107 5.81794 19.2454 6.27917L19.25 6.41667V17.4167C19.2501 17.8792 19.0755 18.3247 18.761 18.6638C18.4465 19.003 18.0154 19.2107 17.5542 19.2454L17.4167 19.25H4.58333C4.12081 19.2501 3.67531 19.0755 3.33616 18.761C2.99701 18.4465 2.78927 18.0154 2.75458 17.5542L2.75 17.4167V6.41667C2.74985 5.95414 2.92454 5.50865 3.23904 5.1695C3.55354 4.83035 3.98461 4.62261 4.44583 4.58792L4.58333 4.58333H6.41667V3.66667C6.41667 3.42355 6.51324 3.19039 6.68515 3.01849C6.85706 2.84658 7.09022 2.75 7.33333 2.75C7.57645 2.75 7.80961 2.84658 7.98151 3.01849C8.15342 3.19039 8.25 3.42355 8.25 3.66667V4.58333H13.75V3.66667C13.75 3.42355 13.8466 3.19039 14.0185 3.01849C14.1904 2.84658 14.4236 2.75 14.6667 2.75ZM13.5887 8.59742L9.70017 12.4859L8.40308 11.1897C8.2302 11.0228 7.99865 10.9304 7.7583 10.9325C7.51795 10.9346 7.28804 11.031 7.11808 11.2009C6.94813 11.3709 6.85172 11.6008 6.84963 11.8411C6.84754 12.0815 6.93994 12.313 7.10692 12.4859L9.04475 14.4247C9.13073 14.5107 9.23283 14.579 9.34521 14.6256C9.4576 14.6722 9.57806 14.6961 9.69971 14.6961C9.82136 14.6961 9.94182 14.6722 10.0542 14.6256C10.1666 14.579 10.2687 14.5107 10.3547 14.4247L14.8848 9.89358C14.9724 9.80902 15.0422 9.70787 15.0903 9.59604C15.1383 9.4842 15.1636 9.36392 15.1646 9.2422C15.1657 9.12049 15.1425 8.99978 15.0964 8.88713C15.0503 8.77447 14.9823 8.67212 14.8962 8.58605C14.8101 8.49999 14.7078 8.43192 14.5951 8.38583C14.4825 8.33974 14.3618 8.31655 14.24 8.3176C14.1183 8.31866 13.998 8.34395 13.8862 8.39199C13.7744 8.44003 13.6732 8.50987 13.5887 8.59742Z" fill="#607EC5"/>
</g>
<defs>
<clipPath id="clip0_196_1488">
<rect width="22" height="22" fill="white"/>
</clipPath>
</defs>
</svg>
